<?xml version="1.0" standalone="no"?>
<!DOCTYPE svg PUBLIC "-//W3C//DTD SVG 20010904//EN"
 "http://www.w3.org/TR/2001/REC-SVG-20010904/DTD/svg10.dtd">
<svg version="1.0" xmlns="http://www.w3.org/2000/svg"
 width="800.000000pt" height="923.000000pt" viewBox="0 0 800.000000 923.000000"
 preserveAspectRatio="xMidYMid meet">

<g transform="translate(0.000000,923.000000) scale(0.100000,-0.100000)"
fill="#FFFFFF" stroke="none">
<path d="M1993 8082 l-1993 -1136 0 -2331 0 -2331 1995 -1137 c1097 -626 1998
-1136 2002 -1134 5 2 907 514 2006 1137 l1997 1134 0 2331 0 2331 -1992 1132
c-1096 622 -2000 1133 -2008 1136 -9 3 -867 -481 -2007 -1132z m3878 -209
l1879 -1067 0 -2191 0 -2191 -1879 -1067 -1879 -1067 -1871 1067 -1871 1068 0
2190 0 2190 1868 1067 c1027 586 1869 1067 1870 1067 2 1 849 -479 1883 -1066z"/>
<path d="M3690 7930 c-574 -59 -1098 -249 -1565 -568 -165 -113 -284 -211
-448 -372 -288 -281 -476 -540 -656 -900 -234 -470 -343 -940 -343 -1475 0
-420 63 -776 208 -1170 104 -284 313 -651 514 -905 101 -129 391 -419 520
-521 307 -244 629 -422 996 -549 765 -265 1615 -238 2367 74 283 117 598 309
844 513 129 107 369 352 472 482 337 425 568 929 670 1461 73 383 73 847 0
1230 -101 530 -333 1037 -669 1460 -107 135 -395 423 -530 530 -323 257 -752
479 -1132 588 -321 92 -536 123 -888 127 -151 2 -313 0 -360 -5z m621 -245
c14 -5 17 -49 24 -378 4 -205 10 -484 14 -620 l6 -248 234 568 c129 312 236
570 238 572 14 18 504 -166 567 -212 15 -11 -5 -71 -193 -592 -115 -319 -209
-580 -208 -581 1 -1 174 179 384 399 210 221 402 422 427 446 l45 44 98 -79
c110 -88 353 -321 353 -338 0 -6 -178 -216 -396 -465 -217 -250 -398 -459
-401 -464 -7 -12 4 -7 586 267 288 136 525 246 526 244 8 -10 121 -210 147
-261 56 -113 129 -290 121 -298 -4 -4 -250 -134 -546 -290 -296 -156 -535
-285 -530 -286 4 -1 278 17 608 41 330 24 603 40 608 36 27 -23 76 -620 51
-620 -28 1 -1172 -133 -1188 -139 -12 -5 173 -66 563 -186 l582 -180 -7 -40
c-13 -83 -84 -344 -122 -450 -33 -92 -42 -109 -58 -107 -11 2 -277 71 -593
153 -316 82 -576 148 -578 146 -1 -2 210 -172 470 -377 259 -205 475 -376 479
-380 16 -13 -197 -308 -334 -464 l-35 -40 -34 24 c-19 13 -241 173 -494 355
-525 378 -496 358 -474 325 35 -54 598 -1016 604 -1032 5 -12 -12 -30 -67 -71
-157 -116 -444 -279 -457 -259 -227 353 -666 1021 -668 1015 -2 -5 40 -271 92
-591 52 -320 95 -590 95 -600 0 -15 -14 -23 -62 -35 -158 -42 -325 -73 -488
-92 l-55 -6 -124 593 c-68 326 -127 601 -130 610 -4 10 -62 -246 -129 -570
-68 -323 -126 -595 -129 -606 -5 -17 -12 -18 -81 -12 -147 14 -482 81 -520
105 -10 6 12 155 87 617 55 335 99 610 98 611 -1 1 -121 -182 -267 -405 -145
-224 -298 -458 -338 -520 l-74 -113 -97 52 c-118 64 -292 173 -371 234 l-58
45 310 527 c171 291 312 531 315 536 2 4 3 7 1 7 -2 0 -229 -162 -503 -361
l-500 -360 -49 53 c-91 100 -270 341 -314 424 -10 20 23 48 473 404 267 211
483 385 482 386 -1 2 -270 -67 -597 -151 -326 -85 -595 -155 -596 -155 -5 0
-67 180 -95 275 -16 55 -40 150 -53 211 l-23 111 593 184 c326 101 592 184
590 186 -2 3 -1197 143 -1217 143 -27 0 21 581 51 613 4 4 234 -8 511 -28 738
-52 729 -51 721 -44 -4 3 -249 133 -545 289 -295 155 -537 286 -537 292 0 47
236 522 270 543 6 4 1079 -495 1123 -522 17 -10 -24 37 -437 512 -201 231
-366 424 -366 429 0 16 237 243 346 330 l109 87 54 -58 c203 -217 795 -833
798 -829 2 2 -89 259 -202 571 -113 313 -205 572 -205 577 0 30 568 248 577
222 2 -5 109 -263 237 -573 l234 -564 6 124 c3 68 10 344 16 614 6 269 13 492
16 495 18 17 561 22 605 5z"/>
</g>
</svg>
